<?xml version="1.0" encoding="utf-8"?>
<!-- Generator: Adobe Illustrator 25.2.1, SVG Export Plug-In . SVG Version: 6.00 Build 0)  -->
<svg version="1.1" id="레이어_1" xmlns="http://www.w3.org/2000/svg" xmlns:xlink="http://www.w3.org/1999/xlink" x="0px"
	 y="0px" viewBox="0 0 70 70" style="enable-background:new 0 0 70 70;" xml:space="preserve">
<style type="text/css">
	.st0{fill:#815854;}
	.st1{fill-rule:evenodd;clip-rule:evenodd;fill:#815854;}
</style>
<g>
	<path class="st0" d="M35,0C15.7,0,0,15.7,0,35c0,19.3,15.7,35,35,35c19.3,0,35-15.7,35-35C70,15.7,54.3,0,35,0z M17.8,28
		c-3.9,0-7-3.1-7-7c0-3.9,3.1-7,7-7s7,3.1,7,7C24.8,24.9,21.6,28,17.8,28z M35,62.8c-3.9,0-7-3.1-7-7c0-3.9,3.1-7,7-7s7,3.1,7,7
		C42,59.6,38.9,62.8,35,62.8z M35,45.5c-3.9,0-7-3.1-7-7c0-3.9,3.1-7,7-7s7,3.1,7,7C42,42.4,38.9,45.5,35,45.5z M35,28
		c-3.9,0-7-3.1-7-7c0-3.9,3.1-7,7-7c3.9,0,7,3.1,7,7C42,24.9,38.9,28,35,28z M52.2,28c-3.9,0-7-3.1-7-7c0-3.9,3.1-7,7-7
		c3.9,0,7,3.1,7,7C59.2,24.9,56.1,28,52.2,28z"/>
</g>
</svg>
