<?xml version="1.0" encoding="utf-8"?>
<!-- Generator: Adobe Illustrator 25.2.1, SVG Export Plug-In . SVG Version: 6.00 Build 0)  -->
<svg version="1.1" id="레이어_1" xmlns="http://www.w3.org/2000/svg" xmlns:xlink="http://www.w3.org/1999/xlink" x="0px"
	 y="0px" viewBox="0 0 70 70" style="enable-background:new 0 0 70 70;" xml:space="preserve">
<style type="text/css">
	.st0{fill:#815854;}
	.st1{fill-rule:evenodd;clip-rule:evenodd;fill:#815854;}
</style>
<g>
	<path class="st0" d="M61.9,0H8.1C3.6,0,0,3.6,0,8.1v53.9C0,66.4,3.6,70,8.1,70h53.9c4.5,0,8.1-3.6,8.1-8.1V8.1
		C70,3.6,66.4,0,61.9,0z M46.7,36.4L35.5,51.7h-6.2L24.6,24l-6.9,0.2v-3c0.2,0,13.4-6.6,14.6,0L36,45h0.7l7.1-11.3
		c0,0,4.4-9.3-3-11.7c0,0,5.1-6.2,10.1-2.3S46.7,36.4,46.7,36.4z"/>
</g>
</svg>
