<?xml version="1.0" encoding="utf-8"?>
<!-- Generator: Adobe Illustrator 25.2.1, SVG Export Plug-In . SVG Version: 6.00 Build 0)  -->
<svg version="1.1" id="레이어_1" xmlns="http://www.w3.org/2000/svg" xmlns:xlink="http://www.w3.org/1999/xlink" x="0px"
	 y="0px" viewBox="0 0 625.3 625.3" style="enable-background:new 0 0 625.3 625.3;" xml:space="preserve">
<style type="text/css">
	.st0{fill:#282224;}
	.st1{fill:#EAEAEA;}
</style>
<rect x="131.3" y="140" class="st0" width="374.9" height="374.9"/>
<g>
	<path class="st1" d="M312.7,612.7c165.5,0,300-134.5,300-300s-134.5-300-300-300s-300,134.5-300,300S147.2,612.7,312.7,612.7z
		 M402.7,451.6c-3.8,0-7.5-1.2-10.6-3.3l-180-120c-5.2-3.5-8.4-9.3-8.4-15.6c0-6.3,3.1-12.1,8.4-15.6l180-120
		c5.6-3.7,12.7-4.1,18.7-1.1c6,3,9.9,8.9,10.4,15.6c0.4,6.7-2.7,13.1-8.2,16.8L256.4,312.7l156.6,104.4c4.6,3,7.6,7.7,8.4,13.1
		c0.8,5.4-0.8,10.8-4.4,14.9C413.3,449.2,408.2,451.6,402.7,451.6L402.7,451.6z"/>
</g>
</svg>
