<?xml version="1.0" encoding="utf-8"?>
<!-- Generator: Adobe Illustrator 25.2.1, SVG Export Plug-In . SVG Version: 6.00 Build 0)  -->
<svg version="1.1" id="레이어_1" xmlns="http://www.w3.org/2000/svg" xmlns:xlink="http://www.w3.org/1999/xlink" x="0px"
	 y="0px" viewBox="0 0 864.5 334.4" style="enable-background:new 0 0 864.5 334.4;" xml:space="preserve">
<style type="text/css">
	.st0{fill:none;stroke:#0C9992;stroke-width:7;stroke-linecap:round;stroke-linejoin:round;stroke-miterlimit:10;}
	.st1{fill:none;stroke:#272223;stroke-width:7;stroke-linecap:round;stroke-linejoin:round;stroke-miterlimit:10;}
	.st2{fill:none;stroke:#0C9992;stroke-width:6.9999;stroke-linecap:round;stroke-linejoin:round;stroke-miterlimit:9.9998;}
	.st3{fill:none;stroke:#0C9992;stroke-width:6.9997;stroke-linecap:round;stroke-linejoin:round;stroke-miterlimit:9.9995;}
	.st4{fill:none;stroke:#272223;stroke-width:6.9999;stroke-linecap:round;stroke-linejoin:round;stroke-miterlimit:9.9998;}
	.st5{fill:none;stroke:#272223;stroke-width:6.9997;stroke-linecap:round;stroke-linejoin:round;stroke-miterlimit:9.9995;}
	.st6{fill:none;stroke:#0C9992;stroke-width:5;stroke-linecap:round;stroke-linejoin:round;stroke-miterlimit:10;}
	.st7{fill:none;stroke:#272223;stroke-width:5;stroke-linecap:round;stroke-linejoin:round;stroke-miterlimit:10;}
	.st8{fill:#0C9992;}
	.st9{fill:#D5245C;}
	.st10{clip-path:url(#SVGID_2_);}
	.st11{fill:#272223;}
	.st12{fill:#F3CCAF;}
	.st13{fill:none;stroke:#323333;stroke-miterlimit:10;}
	.st14{fill:#323333;}
	.st15{fill:none;}
	.st16{fill:#1F1C1C;stroke:#F3CCAF;stroke-miterlimit:10;}
	.st17{fill:#1F1C1C;}
	.st18{fill:none;stroke:#F3CCAF;stroke-miterlimit:10;}
	.st19{enable-background:new    ;}
	.st20{fill:#7F5652;}
	.st21{fill:none;stroke:#7F5652;stroke-width:3;stroke-linecap:round;stroke-linejoin:round;stroke-miterlimit:10;}
	.st22{fill:#7F5652;stroke:#7F5652;stroke-linecap:round;stroke-linejoin:round;stroke-miterlimit:10;}
	.st23{fill:none;stroke:#7F5652;stroke-width:7;stroke-linecap:round;stroke-linejoin:round;stroke-miterlimit:10;}
	.st24{fill:#7F5652;stroke:#7F5652;stroke-width:3;stroke-linecap:round;stroke-linejoin:round;stroke-miterlimit:10;}
	.st25{fill:none;stroke:#7F5652;stroke-width:10;stroke-linecap:round;stroke-linejoin:round;stroke-miterlimit:10;}
</style>
<image style="overflow:visible;enable-background:new    ;" width="261" height="262" xlink:href="8FDB3B5E.jpeg"  transform="matrix(0.9962 0 0 0.9962 2075.4573 -1024.7914)">
</image>
<g>
	<polyline class="st0" points="2233.2,-716.8 2264,-716.8 2264,-689.6 	"/>
	<polyline class="st0" points="2144.3,-650.2 2144.3,-580.5 2186.4,-580.5 2186.4,-625.3 2186.4,-625.3 2221.9,-625.3 
		2221.9,-580.5 2264,-580.5 2264,-650.2 	"/>
	<polyline class="st0" points="2285.7,-651.7 2204.1,-731.4 2122.6,-651.7 	"/>
	<path class="st0" d="M2204.1-691.6"/>
</g>
<g>
	<polyline class="st1" points="2233.2,-533.6 2264,-533.6 2264,-506.3 	"/>
	<polyline class="st1" points="2144.3,-466.9 2144.3,-397.3 2186.4,-397.3 2186.4,-442 2186.4,-442 2221.9,-442 2221.9,-397.3 
		2264,-397.3 2264,-466.9 	"/>
	<polyline class="st1" points="2285.7,-468.4 2204.1,-548.1 2122.6,-468.4 	"/>
	<path class="st1" d="M2204.1-508.4"/>
</g>
<image style="overflow:visible;enable-background:new    ;" width="241" height="215" xlink:href="8FDB3B62.jpeg"  transform="matrix(0.9953 0 0 0.9953 1802.5732 -977.7933)">
</image>
<g>
	<line class="st0" x1="1854.2" y1="-705.6" x2="1933" y2="-705.6"/>
	<line class="st0" x1="1854.2" y1="-684.3" x2="1933" y2="-684.3"/>
	<line class="st0" x1="1854.2" y1="-662.9" x2="1933" y2="-662.9"/>
	<line class="st0" x1="1963.2" y1="-637.2" x2="1991.1" y2="-637.2"/>
	<line class="st0" x1="1912.3" y1="-618" x2="1991.1" y2="-618"/>
	<line class="st0" x1="1912.3" y1="-598.9" x2="1991.1" y2="-598.9"/>
	<path class="st0" d="M1938.7-637.2h-59.1l-19,18.2l0.4-18.2h-13.6c-7.2,0-13-5.8-13-13v-68.2c0-7.2,5.8-13,13-13h91.3
		c7.2,0,13,5.8,13,13v68.2C1951.7-643,1945.9-637.2,1938.7-637.2z"/>
	<path class="st0" d="M1901.6-637.2v43.8c0,5.9,4.8,10.7,10.7,10.7h48.4l16.4,18.6l0.6-18.6h14.1c5.9,0,10.7-4.8,10.7-10.7v-58.2
		c0-5.9-4.8-10.7-10.7-10.7h-40.2"/>
</g>
<g>
	<line class="st1" x1="1854.2" y1="-518" x2="1933" y2="-518"/>
	<line class="st1" x1="1854.2" y1="-496.7" x2="1933" y2="-496.7"/>
	<line class="st1" x1="1854.2" y1="-475.4" x2="1933" y2="-475.4"/>
	<line class="st1" x1="1963.2" y1="-449.6" x2="1991.1" y2="-449.6"/>
	<line class="st1" x1="1912.3" y1="-430.5" x2="1991.1" y2="-430.5"/>
	<line class="st1" x1="1912.3" y1="-411.4" x2="1991.1" y2="-411.4"/>
	<path class="st1" d="M1938.7-449.6h-59.1l-19,18.2l0.4-18.2h-13.6c-7.2,0-13-5.8-13-13v-68.1c0-7.2,5.8-13,13-13h91.3
		c7.2,0,13,5.8,13,13v68.1C1951.7-455.4,1945.9-449.6,1938.7-449.6z"/>
	<path class="st1" d="M1901.6-449.6v43.8c0,5.9,4.8,10.7,10.7,10.7h48.4l16.4,18.6l0.6-18.6h14.1c5.9,0,10.7-4.8,10.7-10.7V-464
		c0-5.9-4.8-10.7-10.7-10.7h-40.2"/>
</g>
<image style="overflow:visible;enable-background:new    ;" width="230" height="200" xlink:href="8FDB3B62.jpeg"  transform="matrix(0.995 0 0 0.995 1513.8656 -962.7933)">
</image>
<g>
	<circle class="st0" cx="1625.2" cy="-699.4" r="32"/>
	<g>
		<path class="st0" d="M1687.4-596.9c0-35.6-27.9-64.4-62.2-64.4s-62.2,28.8-62.2,64.4c0,4.1,0.4,8.1,1.1,12h122.3
			C1687-588.8,1687.4-592.8,1687.4-596.9z"/>
	</g>
</g>
<g>
	<circle class="st1" cx="1625.2" cy="-516.6" r="32"/>
	<g>
		<path class="st1" d="M1687.4-414.1c0-35.6-27.9-64.4-62.2-64.4s-62.2,28.9-62.2,64.4c0,4.1,0.4,8.1,1.1,12h122.3
			C1687-406,1687.4-410,1687.4-414.1z"/>
	</g>
</g>
<image style="overflow:visible;enable-background:new    ;" width="148" height="132" xlink:href="8FDB3B66.jpeg"  transform="matrix(0.9924 0 0 0.9924 1315.74 -895.4182)">
</image>
<g>
	
		<ellipse transform="matrix(0.2924 -0.9563 0.9563 0.2924 1651.8759 860.4857)" class="st0" cx="1407.4" cy="-686" rx="16.4" ry="11.1"/>
	
		<ellipse transform="matrix(0.9448 -0.3276 0.3276 0.9448 300.5152 412.1308)" class="st2" cx="1373.6" cy="-685.9" rx="11.1" ry="16.4"/>
	
		<ellipse transform="matrix(0.9448 -0.3276 0.3276 0.9448 291.9273 405.7276)" class="st2" cx="1350.3" cy="-663.6" rx="11.1" ry="12.9"/>
	
		<ellipse transform="matrix(0.4364 -0.8997 0.8997 0.4364 1403.1293 912.8596)" class="st3" cx="1430.2" cy="-663.6" rx="12.9" ry="11.1"/>
	<path class="st0" d="M1359.8-641.9c0,0,15.4-20.9,30.7-20.9s31.4,22.4,31.4,22.4s13.3,17.8,0,26.4c0,0-8.2,4.6-25.9-3.1
		c0,0-7.4-2.5-16.6,2.2s-21.9,0.7-21.9,0.7S1342.8-621.5,1359.8-641.9z"/>
</g>
<g>
	
		<ellipse transform="matrix(0.2924 -0.9563 0.9563 0.2924 1480.9371 986.9694)" class="st1" cx="1407.4" cy="-507.2" rx="16.4" ry="11.1"/>
	
		<ellipse transform="matrix(0.9448 -0.3276 0.3276 0.9448 241.956 421.9935)" class="st4" cx="1373.6" cy="-507.2" rx="11.1" ry="16.4"/>
	
		<ellipse transform="matrix(0.9448 -0.3276 0.3276 0.9448 233.3681 415.5903)" class="st4" cx="1350.3" cy="-484.9" rx="11.1" ry="12.9"/>
	
		<ellipse transform="matrix(0.4364 -0.8997 0.8997 0.4364 1242.2969 1013.59)" class="st5" cx="1430.2" cy="-484.9" rx="12.9" ry="11.1"/>
	<path class="st1" d="M1359.8-463.2c0,0,15.4-20.9,30.7-20.9s31.4,22.4,31.4,22.4s13.3,17.8,0,26.4c0,0-8.2,4.6-25.9-3.1
		c0,0-7.4-2.5-16.6,2.2c-9.2,4.7-21.9,0.7-21.9,0.7S1342.8-442.8,1359.8-463.2z"/>
</g>
<image style="overflow:visible;enable-background:new    ;" width="260" height="198" xlink:href="8FDB3B66.jpeg"  transform="matrix(0.9949 0 0 0.9949 1029.6138 -956.7933)">
</image>
<g>
	<path class="st6" d="M1253-706.7v117.3h-72.9c0,0-14.7,0.8-20.2,8.8c-5.5-8-19.8-8.8-19.8-8.8h-72.9v-117.3"/>
	<path class="st6" d="M1245.9-715.3V-598h-67.3c0,0-13.6,0.8-18.6,8.8c-5.1-8-18.3-8.8-18.3-8.8h-67.3v-117.3"/>
	<path class="st6" d="M1160-598.5V-702c0,0-3.8-18.1-29-18.7c-25.2-0.6-47.7,0-47.7,0V-607h60.3C1143.6-607,1155.4-606.2,1160-598.5
		"/>
	<path class="st6" d="M1160.1-582.8V-702c0,0,3.8-18.1,29-18.7c25.2-0.6,47.7,0,47.7,0V-607h-60.3c0,0-11.9,0.8-16.4,8.5"/>
</g>
<g>
	<path class="st7" d="M1253-534.5v117.3h-72.9c0,0-14.7,0.8-20.2,8.8c-5.5-8-19.8-8.8-19.8-8.8h-72.9v-117.3"/>
	<path class="st7" d="M1245.9-543.1v117.3h-67.3c0,0-13.6,0.8-18.6,8.8c-5.1-8-18.3-8.8-18.3-8.8h-67.3v-117.3"/>
	<path class="st7" d="M1160-426.3v-103.5c0,0-3.8-18.1-29-18.7c-25.2-0.6-47.7,0-47.7,0v113.6h60.3
		C1143.6-434.8,1155.4-434,1160-426.3"/>
	<path class="st7" d="M1160.1-410v-119.8c0,0,3.8-18.1,29-18.7c25.2-0.6,47.7,0,47.7,0v113.6h-60.3c0,0-11.9,0.8-16.4,8.5"/>
</g>
<g>
	<path class="st7" d="M-181.7-179.9V54.3h-145.5c0,0-29.4,1.7-40.3,17.6c-10.9-16-39.6-17.6-39.6-17.6h-145.5v-234.3"/>
	<path class="st7" d="M-195.9-197.1V37.2h-134.4c0,0-27.1,1.7-37.2,17.6c-10.1-16-36.5-17.6-36.5-17.6h-134.4v-234.3"/>
	<path class="st7" d="M-367.5,36.2v-206.7c0,0-7.7-36.1-58-37.3s-95.2,0-95.2,0V19.1h120.5C-400.2,19.1-376.5,20.8-367.5,36.2"/>
	<path class="st7" d="M-367.2,68.8v-239.2c0,0,7.7-36.1,58-37.3s95.2,0,95.2,0V19.1h-120.5c0,0-23.7,1.6-32.8,17.1"/>
</g>
<g>
	<g>
		<polyline class="st0" points="1219.3,-113.8 1250.1,-113.8 1250.1,-86.6 		"/>
		<polyline class="st0" points="1130.4,-47.2 1130.4,22.5 1172.5,22.5 1172.5,-22.3 1172.5,-22.3 1208,-22.3 1208,22.5 1250.1,22.5 
			1250.1,-47.2 		"/>
		<polyline class="st0" points="1271.8,-48.7 1190.3,-128.4 1108.8,-48.7 		"/>
		<path class="st0" d="M1190.3-88.6"/>
	</g>
	<g>
		<line class="st0" x1="1387.6" y1="-110.8" x2="1466.4" y2="-110.8"/>
		<line class="st0" x1="1387.6" y1="-89.5" x2="1466.4" y2="-89.5"/>
		<line class="st0" x1="1387.6" y1="-68.2" x2="1466.4" y2="-68.2"/>
		<line class="st0" x1="1496.7" y1="-42.4" x2="1524.5" y2="-42.4"/>
		<line class="st0" x1="1445.7" y1="-23.3" x2="1524.5" y2="-23.3"/>
		<line class="st0" x1="1445.7" y1="-4.2" x2="1524.5" y2="-4.2"/>
		<path class="st0" d="M1472.1-42.4H1413l-19,18.2l0.4-18.2h-13.6c-7.2,0-13-5.8-13-13v-68.1c0-7.2,5.8-13,13-13h91.3
			c7.2,0,13,5.8,13,13v68.2C1485.1-48.2,1479.3-42.4,1472.1-42.4z"/>
		<path class="st0" d="M1435-42.4V1.4c0,5.9,4.8,10.7,10.7,10.7h48.4l16.4,18.6l0.6-18.6h14.1c5.9,0,10.7-4.8,10.7-10.7v-58.2
			c0-5.9-4.8-10.7-10.7-10.7h-40.2"/>
	</g>
	<g>
		<circle class="st0" cx="1713.4" cy="-94.2" r="32"/>
		<g>
			<path class="st0" d="M1775.6,8.3c0-35.6-27.9-64.4-62.2-64.4s-62.2,28.9-62.2,64.4c0,4.1,0.4,8.1,1.1,12h122.3
				C1775.2,16.4,1775.6,12.4,1775.6,8.3z"/>
		</g>
	</g>
	<g>
		
			<ellipse transform="matrix(0.2924 -0.9563 0.9563 0.2924 1506.5033 1845.3524)" class="st0" cx="2000.2" cy="-95.3" rx="24.2" ry="16.4"/>
		
			<ellipse transform="matrix(0.9448 -0.3276 0.3276 0.9448 138.8264 633.6349)" class="st2" cx="1950.2" cy="-95.3" rx="16.4" ry="24.2"/>
		
			<ellipse transform="matrix(0.9448 -0.3276 0.3276 0.9448 126.1396 624.1755)" class="st2" cx="1915.8" cy="-62.3" rx="16.4" ry="19.1"/>
		
			<ellipse transform="matrix(0.4364 -0.8997 0.8997 0.4364 1202.3273 1794.9199)" class="st3" cx="2033.9" cy="-62.3" rx="19.1" ry="16.4"/>
		<path class="st0" d="M1930-30.2c0,0,22.8-30.9,45.3-30.9c22.5,0,46.4,33,46.4,33s19.7,26.3,0,39c0,0-12,6.8-38.3-4.6
			c0,0-10.9-3.7-24.5,3.3s-32.4,1.1-32.4,1.1S1904.8-0.1,1930-30.2z"/>
	</g>
	<g>
		<path class="st6" d="M2329.4-108.9V8.4h-72.9c0,0-14.7,0.8-20.2,8.8c-5.5-8-19.8-8.8-19.8-8.8h-72.9V-109"/>
		<path class="st6" d="M2322.3-117.5V-0.2H2255c0,0-13.6,0.8-18.6,8.8c-5.1-8-18.3-8.8-18.3-8.8h-67.3v-117.3"/>
		<path class="st6" d="M2236.4-0.7v-103.5c0,0-3.9-18.1-29-18.7c-25.2-0.6-47.7,0-47.7,0V-9.2h60.3C2220-9.2,2231.9-8.4,2236.4-0.7"
			/>
		<path class="st6" d="M2236.6,14.9v-119.2c0,0,3.9-18.1,29-18.7c25.2-0.6,47.7,0,47.7,0V-9.2H2253c0,0-11.9,0.8-16.4,8.6"/>
	</g>
</g>
<g>
	<g>
		<polyline class="st1" points="1214.8,374.2 1245.6,374.2 1245.6,401.4 		"/>
		<polyline class="st1" points="1125.9,440.8 1125.9,510.5 1167.9,510.5 1167.9,465.7 1167.9,465.7 1203.5,465.7 1203.5,510.5 
			1245.6,510.5 1245.6,440.8 		"/>
		<polyline class="st1" points="1267.2,439.4 1185.7,359.6 1104.2,439.3 		"/>
		<path class="st1" d="M1185.7,399.4"/>
	</g>
	<g>
		<line class="st1" x1="1385.3" y1="377.2" x2="1464.2" y2="377.2"/>
		<line class="st1" x1="1385.3" y1="398.5" x2="1464.2" y2="398.5"/>
		<line class="st1" x1="1385.3" y1="419.9" x2="1464.2" y2="419.9"/>
		<line class="st1" x1="1494.4" y1="445.6" x2="1522.2" y2="445.6"/>
		<line class="st1" x1="1443.4" y1="464.7" x2="1522.2" y2="464.7"/>
		<line class="st1" x1="1443.4" y1="483.9" x2="1522.2" y2="483.9"/>
		<path class="st1" d="M1469.8,445.6h-59.1l-19,18.2l0.4-18.2h-13.6c-7.2,0-13-5.8-13-13v-68.1c0-7.2,5.8-13,13-13h91.3
			c7.2,0,13,5.8,13,13v68.1C1482.8,439.8,1477,445.6,1469.8,445.6z"/>
		<path class="st1" d="M1432.8,445.6v43.8c0,5.9,4.8,10.7,10.7,10.7h48.4l16.4,18.6l0.6-18.6h14.1c5.9,0,10.7-4.8,10.7-10.7v-58.2
			c0-5.9-4.8-10.7-10.7-10.7h-40.2"/>
	</g>
	<g>
		<circle class="st1" cx="1713.4" cy="393.8" r="32"/>
		<g>
			<path class="st1" d="M1775.6,496.3c0-35.6-27.9-64.4-62.2-64.4s-62.2,28.9-62.2,64.4c0,4.1,0.4,8.1,1.1,12h122.3
				C1775.2,504.4,1775.6,500.4,1775.6,496.3z"/>
		</g>
	</g>
	<g>
		
			<ellipse transform="matrix(0.2924 -0.9563 0.9563 0.2924 1043.9829 2192.5889)" class="st1" cx="2003.6" cy="390.8" rx="25.2" ry="17.1"/>
		
			<ellipse transform="matrix(0.9448 -0.3276 0.3276 0.9448 -20.3713 660.852)" class="st4" cx="1951.4" cy="390.9" rx="17.1" ry="25.2"/>
		
			<ellipse transform="matrix(0.9448 -0.3276 0.3276 0.9448 -33.6138 650.9777)" class="st4" cx="1915.4" cy="425.3" rx="17.1" ry="20"/>
		
			<ellipse transform="matrix(0.4364 -0.8997 0.8997 0.4364 766.3392 2074.0544)" class="st5" cx="2038.8" cy="425.3" rx="20" ry="17.1"/>
		<path class="st1" d="M1930.3,458.7c0,0,23.8-32.2,47.3-32.2S2026,461,2026,461s20.6,27.4,0,40.7c0,0-12.6,7.1-40-4.8
			c0,0-11.4-3.9-25.6,3.4s-33.8,1.1-33.8,1.1S1904,490.3,1930.3,458.7z"/>
	</g>
	<g>
		<path class="st7" d="M2334,379v117.3h-72.9c0,0-14.7,0.8-20.2,8.8c-5.5-8-19.8-8.8-19.8-8.8h-72.9V379"/>
		<path class="st7" d="M2326.9,370.5v117.3h-67.3c0,0-13.6,0.8-18.6,8.8c-5.1-8-18.3-8.8-18.3-8.8h-67.3V370.5"/>
		<path class="st7" d="M2241,487.3V383.8c0,0-3.9-18.1-29-18.7c-25.2-0.6-47.7,0-47.7,0v113.6h60.3
			C2224.6,478.8,2236.4,479.6,2241,487.3"/>
		<path class="st7" d="M2241.1,503.6V383.8c0,0,3.9-18.1,29-18.7c25.2-0.6,47.7,0,47.7,0v113.6h-60.3c0,0-11.9,0.8-16.4,8.5"/>
	</g>
</g>
<g>
	<path class="st8" d="M2481.7-71.6c0-4,1.6-7.1,4.6-9.2c3.1-2.1,7.1-3.1,12.1-3.1h54.8c9.8,0,19,1,27.7,2.9s16.4,5.1,23.1,9.4
		c6.7,4.3,11.9,10,15.8,17c3.9,7,5.8,15.4,5.8,25.3v1.4c0,9.9-1.9,18.3-5.6,25.3s-8.8,12.6-15.1,17c-6.4,4.3-13.8,7.5-22.4,9.5
		c-8.6,2-17.8,3-27.5,3h-33v47.4c0,3.1-0.5,5.8-1.6,8c-1.1,2.2-2.6,4.1-4.4,5.6c-1.9,1.5-4,2.6-6.4,3.2c-2.4,0.7-4.8,1.1-7.3,1.1
		c-2.6,0-5.2-0.3-7.7-1.1c-2.5-0.7-4.7-1.8-6.6-3.2c-1.9-1.5-3.5-3.3-4.6-5.6c-1.2-2.2-1.7-4.9-1.7-8L2481.7-71.6L2481.7-71.6z
		 M2522.1-55.4V0.3h33c9.4,0,16.9-2.2,22.3-6.5c5.4-4.3,8.1-11.1,8.1-20.2v-3.2c0-9-3.2-15.5-9.6-19.6s-14.5-6.2-24.3-6.2
		L2522.1-55.4L2522.1-55.4z"/>
	<path class="st8" d="M2702.2-25.7c8.5,0,16.6,1.2,24.1,3.6c7.6,2.4,14.2,5.7,20,9.9c5.7,4.2,10.2,9.2,13.6,15s5,12,5,18.7
		c0,5.4-0.9,9.8-2.7,13s-4.1,5.8-7,7.5c-2.9,1.8-6.1,2.9-9.9,3.5c-3.7,0.5-7.5,0.8-11.4,0.8h-58c0.1,6.7,3,11.8,8.5,15.4
		c5.5,3.6,13.1,5.5,22.9,5.5c6.2,0,12-0.9,17.4-2.7s9.9-3.3,13.5-4.5c3.9-1.2,7.7-1.8,11.4-1.6s6.7,2.1,9.1,5.8
		c1.9,2.9,2.6,6.2,2.1,9.6c-0.5,3.5-2.6,6.3-6.5,8.5c-4.5,2.9-10.9,5.5-19.3,7.8s-17.9,3.4-28.6,3.4c-10.4,0-19.7-1.2-28.1-3.5
		s-15.5-5.6-21.5-9.9c-6-4.3-10.6-9.3-14-15.2c-3.4-5.9-5.3-12.4-5.8-19.5c-0.5-8-0.5-15.9,0-23.7c0.1-6.3,1.9-12.4,5.1-18.1
		c3.2-5.7,7.7-10.8,13.5-15.1c5.7-4.3,12.5-7.8,20.4-10.3C2683.9-24.4,2692.6-25.7,2702.2-25.7z M2720.8,21.5c2.6,0,4.4-0.1,5.5-0.5
		c1-0.3,1.5-1.2,1.5-2.6c0-4.9-2.4-9.1-7.3-12.4c-4.9-3.3-11-5-18.4-5c-3.6,0-6.9,0.4-10,1.2c-3.1,0.8-5.8,1.9-8.2,3.4
		s-4.3,3.2-5.7,5.3s-2.1,4.4-2.1,6.8v3.7L2720.8,21.5L2720.8,21.5z"/>
	<path class="st8" d="M2806.2-64c0-6,2-10.4,6-13.2c4-2.8,8.6-4.2,13.7-4.2c5.1,0,9.7,1.4,13.8,4.2s6.1,7.2,6.1,13.2v38.8h21.1
		c3.2,0,5.9,0.4,7.9,1.2c2,0.8,3.6,1.8,4.9,3.1c1.2,1.3,2.1,2.9,2.6,4.6c0.5,1.8,0.7,3.7,0.7,5.7c0,1.6-0.2,3.1-0.6,4.6
		c-0.4,1.5-1.2,3-2.3,4.3c-1.2,1.3-2.8,2.4-4.9,3.2c-2.1,0.8-4.8,1.3-8.2,1.3h-21.1v71.5c0,6.2-2.1,10.7-6.1,13.5
		c-4.1,2.8-8.7,4.2-13.8,4.2s-9.7-1.4-13.7-4.2c-4-2.8-6-7.3-6-13.5V2.9H2783c-6.2,0-10.4-1.4-12.6-4.3s-3.4-6.1-3.4-9.6
		c0-1.9,0.2-3.6,0.7-5.3c0.5-1.7,1.3-3.2,2.4-4.5c1.2-1.3,2.8-2.4,4.9-3.1c2.1-0.8,4.8-1.2,8-1.2h23.2L2806.2-64L2806.2-64z"/>
	<path class="st8" d="M2913,57.2c7.3,0,13,1.9,17.2,5.7c4.2,3.8,6.3,8.9,6.3,15.2c0,1.9,0,4-0.1,6.5c-0.1,2.5-0.5,5.2-1.3,8
		c-0.8,2.9-2.1,5.8-3.8,8.9c-1.8,3.1-4.3,6.2-7.5,9.3c-1.6,1.4-3.3,2.6-5.3,3.6s-4,1.7-6,2.1c-2,0.4-4,0.4-5.9,0
		c-1.9-0.4-3.6-1.2-5-2.4c-1.9-1.7-2.8-3.6-2.7-5.8c0.1-2.2,0.8-3.9,2.2-5.1c1.5-1.2,2.9-2.9,3.9-5s1.8-4.5,2.1-7.3
		c-2,0-4-0.4-5.9-1.2s-3.7-1.8-5.3-3.2c-1.6-1.4-2.9-3.1-3.9-5s-1.5-4.1-1.5-6.4c0-4.6,1.7-8.8,5.1-12.4
		C2898.8,59,2904.7,57.2,2913,57.2z"/>
	<path class="st8" d="M3098.7-83.9c9.9,0,19.2,1,27.9,2.9c8.7,1.9,16.2,5.1,22.6,9.5s11.4,10.1,15.1,17.1c3.6,7,5.4,15.4,5.4,25.3
		V37c0,10.1-1.8,18.6-5.4,25.5c-3.6,7-8.7,12.6-15.1,17.1c-6.4,4.4-14,7.6-22.6,9.5c-8.7,1.9-17.9,2.9-27.9,2.9h-47.4
		c-5.9,0-10.4-1.5-13.5-4.5c-3.1-3-4.6-7.1-4.6-12.2V-68.1c0-4.3,1.7-8.1,5.1-11.2c3.4-3.1,7.8-4.6,13.2-4.6H3098.7z M3073.4,63
		h25.3c9.9,0,17.5-2.1,22.9-6.3s8-10.8,8-19.7v-66.2c0-9-2.7-15.6-8-19.8c-5.3-4.2-13-6.4-22.9-6.4h-25.3V63z"/>
	<path class="st8" d="M3262.6-25.2c8.2,0,16.1,1.2,23.6,3.5c7.5,2.3,14.2,5.6,20.1,9.8c5.9,4.2,10.7,9.2,14.5,15.1
		c3.8,5.9,6,12.5,6.6,19.7c0.3,3.9,0.5,7.7,0.5,11.4c0,3.7-0.1,7.4-0.5,11.1c-0.5,7.3-2.5,13.8-6,19.7c-3.6,5.9-8.2,10.9-14.1,15.1
		c-5.8,4.2-12.5,7.4-20.2,9.8c-7.7,2.3-15.8,3.5-24.5,3.5s-16.8-1.2-24.3-3.5s-14.2-5.6-20-9.9s-10.5-9.3-14.1-15.2
		s-5.6-12.4-6.3-19.5c-0.5-7.6-0.5-15.1,0-22.5c0.6-7.3,2.7-13.9,6.1-19.9c3.5-5.9,8.1-11,13.8-15.2c5.7-4.2,12.4-7.4,20-9.6
		C3245.6-24.1,3253.8-25.2,3262.6-25.2z M3288.4,22.4c-0.5-6.5-3-11.4-7.7-14.6s-10.7-4.9-18.1-4.9c-6.8,0-12.6,1.7-17.3,5.2
		c-4.7,3.5-7.5,8.2-8.2,14.3c-0.9,8-0.9,15.8,0,23.2c0,6.5,2.4,11.5,7.3,15c4.9,3.5,10.9,5.2,18.2,5.2c7.1,0,13-1.7,17.6-5.2
		c4.6-3.5,7.4-8.5,8.1-15c0.5-4,0.7-8,0.6-12C3288.9,29.7,3288.7,26,3288.4,22.4z"/>
	<path class="st8" d="M3355.1,62.3c4.4-3.4,9.9-5.1,16.4-5.1s12,1.7,16.5,5.1c4.5,3.4,6.7,8.4,6.7,14.8c0,6.5-2.2,11.4-6.7,14.7
		s-10,5-16.5,5s-12-1.7-16.4-5c-4.4-3.3-6.6-8.2-6.6-14.7C3348.5,70.7,3350.7,65.7,3355.1,62.3z M3392.2-68.6
		c0-4.9-1.7-9.2-5.2-12.9s-8.7-5.4-15.7-5.4c-7.4,0-12.8,1.8-16.1,5.4c-3.3,3.6-4.9,7.9-4.8,12.9l3.5,101.4
		c0.1,4.8,1.9,8.3,5.2,10.6c3.3,2.2,7.4,3.4,12.2,3.4c1.5,0,3.3-0.3,5.3-0.8c2-0.5,3.9-1.4,5.6-2.5s3.1-2.6,4.3-4.4
		c1.2-1.8,1.7-3.8,1.7-6.2L3392.2-68.6z"/>
</g>
<image style="overflow:visible;enable-background:new    ;" width="226" height="226" xlink:href="8FDB3B62.jpeg"  transform="matrix(0.9956 0 0 0.9956 759.1439 -962.2885)">
</image>
<g>
	<path class="st0" d="M938.1-645.7c0,36.7-66.4,132.4-66.4,132.4s-66.4-95.8-66.4-132.4c0-36.7,29.7-66.4,66.4-66.4
		S938.1-682.4,938.1-645.7z"/>
	<circle class="st0" cx="871.6" cy="-647.9" r="28"/>
</g>
<g>
	<path class="st1" d="M921.2-417.5c0,29.8-49.5,107.6-49.5,107.6s-49.5-77.8-49.5-107.6s22.2-54,49.5-54S921.2-447.3,921.2-417.5z"
		/>
	<circle class="st1" cx="871.6" cy="-407.3" r="28"/>
</g>
<path class="st9" d="M296.2-447.5h-1338.7c-31,0-56.1-25.1-56.1-56.1v-652.7c0-31,25.1-56.1,56.1-56.1H296.2
	c31,0,56.1,25.1,56.1,56.1v652.7C352.3-472.6,327.2-447.5,296.2-447.5z"/>
<g>
	<g>
		<defs>
			<path id="SVGID_1_" d="M-125-1079.5l-41.3-53.8c0,0-100-13.2-105.3-13.2c-5.3,0-208,0-208,0l-121.3,16.8l8,73l-18.7,102.9l12,61
				l56,83.8l-26.7,142.4l6.7,71.8l53.3,81.5l288-9.7l146.7-123.5l69.3-166.1c0,0-93.3-154.4-93.3-169.9
				C-99.7-998.1-125-1079.5-125-1079.5z"/>
		</defs>
		<clipPath id="SVGID_2_">
			<use xlink:href="#SVGID_1_"  style="overflow:visible;"/>
		</clipPath>
		<g class="st10">
			
				<image style="overflow:visible;enable-background:new    ;" width="801" height="801" xlink:href="8FDB3B62.jpeg"  transform="matrix(0.9988 0 0 0.9988 -773.1139 -1199.4418)">
			</image>
		</g>
	</g>
</g>
<circle class="st7" cx="-430.1" cy="-93.8" r="26.7"/>
<circle class="st7" cx="-305.1" cy="-93.8" r="26.7"/>
<circle class="st11" cx="-311.6" cy="-86" r="16.1"/>
<circle class="st11" cx="-424" cy="-86" r="16.1"/>
<image style="overflow:visible;enable-background:new    ;" width="365" height="139" xlink:href="8FDB3B6E.jpeg"  transform="matrix(0.9928 0 0 0.9928 -1034.6742 -171.1437)">
</image>
<image style="overflow:visible;enable-background:new    ;" width="940" height="997" xlink:href="8FDB3B6E.jpeg"  transform="matrix(0.9989 0 0 0.9989 -1984.3206 -613.5964)">
</image>
<image style="overflow:visible;enable-background:new    ;" width="941" height="998" xlink:href="CAAF94E1.jpeg"  transform="matrix(0.9989 0 0 0.9989 -1763.4872 54.8525)">
</image>
<g>
	<circle class="st12" cx="-309.2" cy="361.2" r="37.9"/>
	<circle class="st13" cx="-323.7" cy="361.2" r="12.1"/>
	<circle class="st14" cx="-324.4" cy="361.2" r="5.4"/>
	<circle class="st13" cx="-294.6" cy="361.2" r="12.1"/>
	<circle class="st14" cx="-295.3" cy="361.2" r="5.4"/>
</g>
<g>
	<line class="st15" x1="-434.9" y1="393.5" x2="-188.4" y2="393.5"/>
	<path class="st16" d="M-206.4,388V345c0,0-52.6-13.1-101.8,48.5h101.8L-206.4,388L-206.4,388z"/>
	<path class="st16" d="M-410,388V345c0,0,52.6-13.1,101.8,48.5H-410V388z"/>
	<polyline class="st17" points="-206.4,393.5 -206.4,388 -206.4,345 	"/>
	<path class="st16" d="M-359.1,368.7c0,0-38.4-11.9-50.9-5.6"/>
	<line class="st18" x1="-380.2" y1="376.9" x2="-410" y2="376.9"/>
	<line class="st18" x1="-228.6" y1="376.9" x2="-206.4" y2="376.9"/>
	<path class="st16" d="M-257.3,369.3c0,0,31.5-19,50.9-4.3"/>
</g>
<g>
	<g class="st19">
		<path class="st20" d="M485.4,225.8c1.8,0,3.7,0.4,5.7,1.2c2,0.8,3.9,1.8,5.7,2.9h-0.1c1.8,1.3,3.2,3.1,4.2,5.2
			c1,2.1,1.5,4.6,1.5,7.4v49.9c0,5.7-1.9,9.9-5.7,12.7c-1.8,1.3-3.7,2.4-5.6,3.1c-1.9,0.7-3.8,1.1-5.6,1.1h-22.9
			c-1.8,0-3.7-0.4-5.6-1.1c-1.9-0.7-3.8-1.8-5.6-3.1c-1.8-1.4-3.2-3.1-4.2-5.2c-1-2.1-1.5-4.6-1.5-7.5v-49.9c0-2.8,0.5-5.3,1.5-7.4
			c1-2.1,2.4-3.9,4.2-5.2h-0.1c1.8-1.2,3.7-2.2,5.7-2.9c2-0.8,3.8-1.2,5.7-1.2H485.4z M482.8,298.6c2.6,0,4.4-0.7,5.5-2.2
			c1-1.5,1.6-3.1,1.6-4.9v-48.1c0-1.8-0.5-3.4-1.6-4.8c-1.1-1.5-2.9-2.2-5.5-2.2h-17.6c-2.6,0-4.4,0.7-5.5,2.2
			c-1.1,1.5-1.6,3.1-1.6,4.8v48.1c0,1.8,0.5,3.5,1.6,4.9c1,1.5,2.9,2.2,5.5,2.2H482.8z"/>
		<path class="st20" d="M557.8,225.8c1.8,0,3.7,0.4,5.7,1.2c2,0.8,3.8,1.8,5.7,2.9h-0.1c1.8,1.3,3.2,3.1,4.2,5.2
			c1,2.1,1.5,4.6,1.5,7.4v49.9c0,5.7-1.9,9.9-5.7,12.7c-1.8,1.3-3.7,2.4-5.6,3.1c-1.9,0.7-3.8,1.1-5.6,1.1h-22.9
			c-1.8,0-3.7-0.4-5.6-1.1c-1.9-0.7-3.8-1.8-5.6-3.1c-1.8-1.4-3.2-3.1-4.2-5.2c-1-2.1-1.5-4.6-1.5-7.5v-49.9c0-2.8,0.5-5.3,1.5-7.4
			c1-2.1,2.4-3.9,4.2-5.2h-0.1c1.8-1.2,3.7-2.2,5.7-2.9c2-0.8,3.8-1.2,5.7-1.2H557.8z M555.2,298.6c2.6,0,4.4-0.7,5.5-2.2
			c1.1-1.5,1.6-3.1,1.6-4.9v-48.1c0-1.8-0.5-3.4-1.6-4.8c-1-1.5-2.9-2.2-5.5-2.2h-17.6c-2.6,0-4.4,0.7-5.5,2.2
			c-1,1.5-1.6,3.1-1.6,4.8v48.1c0,1.8,0.5,3.5,1.6,4.9c1.1,1.5,2.9,2.2,5.5,2.2H555.2z"/>
		<path class="st20" d="M635,227c1-1.3,2.2-1.9,3.6-1.9c1.5,0,3,0.7,4.5,2c0.8,0.8,1.4,1.5,1.9,2.3c0.5,0.8,0.8,1.5,0.8,2.3
			c0,1.3-0.5,2.3-1.4,3.3l-14.1,16.4L603,283.6v21.1c0,3.4-2.1,5-6.3,5c-4.1,0-6.2-1.7-6.2-5v-74.5c0-3.4,2.1-5,6.2-5
			c4.2,0,6.3,1.7,6.3,5v34.3L635,227z M620.1,276.9c-0.7-1-1.1-2.2-1.1-3.6c0-2.1,0.9-3.8,2.6-5h-0.1c1.4-1,2.8-1.5,4.2-1.5
			c1.3,0,2.5,0.8,3.4,2.3l20.3,29.6l-0.1-0.1c0.6,1,0.9,2,0.9,3.2c0,1.8-0.9,3.4-2.7,4.8h0.1c-0.8,0.5-1.5,0.9-2.2,1.2
			c-0.7,0.3-1.3,0.4-1.9,0.4c-0.6,0-1.1-0.2-1.7-0.6c-0.6-0.4-1.2-0.9-1.7-1.6L620.1,276.9z"/>
		<path class="st20" d="M657.6,272.9c-3.2,0-4.8-1.8-4.8-5.3c0.1-1.8,0.5-3.2,1.4-4c0.8-0.9,2-1.3,3.5-1.3h21.2
			c3.2,0,4.7,1.8,4.7,5.4c0.1,3.5-1.4,5.3-4.7,5.3H657.6z"/>
		<path class="st20" d="M707.2,232.3c0,2.2-0.8,4.1-2.3,5.7c-1.5,1.5-3.4,2.3-5.7,2.3c-2.2,0-4.1-0.8-5.7-2.3
			c-1.6-1.5-2.4-3.4-2.4-5.7c0-2.3,0.8-4.2,2.4-5.8c1.6-1.5,3.5-2.3,5.7-2.3c2.2,0,4.1,0.8,5.7,2.3C706.4,228,707.2,230,707.2,232.3
			z M705,304.7c0,3.4-1.9,5-5.8,5c-3.9,0-5.9-1.7-5.9-5v-54.2c0-3.4,2-5,5.9-5c3.9,0,5.8,1.7,5.8,5V304.7z"/>
		<path class="st20" d="M731.1,304.7c0,3.4-1.9,5-5.8,5c-3.9,0-5.8-1.7-5.8-5v-42.2c0-2.9,0.5-5.4,1.4-7.5c0.9-2.1,2.3-3.8,4.3-5.1
			c3.7-2.7,7.4-4,11.1-4h16.9c3.6,0,7.3,1.3,11.1,4c3.8,2.7,5.7,6.9,5.7,12.6v42.2c0,3.4-1.9,5-5.8,5c-3.9,0-5.8-1.7-5.8-5v-41.3
			c0-1.8-0.6-3.6-1.7-5.3l0.1,0.1c-0.9-1.7-2.8-2.5-5.6-2.5h-13.1c-2.9,0-4.8,0.8-5.7,2.5c-1,1.5-1.5,3.2-1.5,5.1V304.7z"/>
		<path class="st20" d="M800.5,301.8c-1.8,0-3.7-0.3-5.6-0.9c-1.9-0.6-3.8-1.5-5.6-2.7c-3.8-2.4-5.7-6.6-5.7-12.4V262
			c0-2.9,0.5-5.5,1.5-7.6c1-2.1,2.4-3.7,4.1-4.9c1.8-1.1,3.7-2,5.6-2.6c1.9-0.6,3.7-0.9,5.6-0.9h17.6c1.8,0,3.6,0.4,5.5,1.2
			c1.9,0.8,3.6,1.8,5.3,2.9c1.6,1.3,2.9,3.1,3.9,5.3c1,2.2,1.5,4.6,1.5,7.4v44.5c0,2.9-0.5,5.4-1.4,7.5c-0.9,2.1-2.3,3.8-3.9,5.2
			c-1.6,1.3-3.3,2.4-5.2,3.1c-1.9,0.7-3.7,1.1-5.5,1.1h-17.6c-3.7,0-7.5-1.1-11.2-3.3c-2-1.1-3.4-2.6-4.3-4.3
			c-0.9-1.8-1.3-3.8-1.3-6.1v-1.3c0-1.4,0.5-2.5,1.4-3.4c0.9-0.8,2.3-1.3,4.3-1.3c3.9,0.4,5.9,2,5.9,4.6v1.2c0,0.8,0.5,1.6,1.6,2.5
			c1.1,0.9,2.9,1.4,5.5,1.4h13.1c2.6,0,4.4-0.7,5.5-2.2c1.1-1.5,1.6-3.1,1.6-4.9v-44.3c0-1.7-0.5-3.3-1.6-4.8
			c-1.1-1.4-2.9-2.2-5.5-2.2h-13.1c-2.6,0-4.4,0.7-5.5,2.2c-1.1,1.4-1.6,3-1.6,4.8v22.2c0,1.8,0.5,3.4,1.6,4.9
			c1.1,1.5,2.9,2.3,5.5,2.3h10.9c2.5,0,3.8,1.6,3.8,4.8c0,1.5-0.3,2.7-0.9,3.6c-0.6,0.9-1.6,1.4-2.9,1.4H800.5z"/>
	</g>
	<g>
		<path class="st20" d="M379.4,160.8h-348c-4.3,0-7.7-3.4-7.7-7.7s3.5-7.7,7.7-7.7h344.1c44.4-62.6,9.8-111.2,0.5-122.4H31.4
			c-4.3,0-7.7-3.5-7.7-7.7s3.5-7.7,7.7-7.7h348c2.1,0,4.1,0.9,5.6,2.4c0.6,0.6,61.7,65.8,0.6,147.8
			C384.1,159.6,381.8,160.8,379.4,160.8z"/>
		<path class="st20" d="M379.4,324.2h-348c-4.3,0-7.7-3.5-7.7-7.7s3.5-7.7,7.7-7.7h343.7c45-73.2,9.9-130.5,0.4-143.7H31.4
			c-4.3,0-7.7-3.4-7.7-7.7s3.5-7.7,7.7-7.7h348c2.3,0,4.5,1,5.9,2.8c0.6,0.7,60.8,74.9,0.6,168.3C384.5,322.9,382,324.2,379.4,324.2
			z"/>
	</g>
</g>
<g>
	<text transform="matrix(1 0 0 1 -572.0844 614.3397)" class="st20" style="font-family:'Gugi-Regular'; font-size:34px;">OOK-ing</text>
	<g>
		<path class="st21" d="M-703.5,519.2h112.7c0,0,18.7,19.5,0,44.6h-112.7"/>
		<path class="st21" d="M-703.5,565.2h112.7c0,0,18.7,22.5,0,51.5h-112.7"/>
	</g>
</g>
<g>
	<g>
		<path class="st22" d="M38,587.3c0.6,0,1.2,0.1,1.8,0.4c0.6,0.2,1.2,0.6,1.8,1h0c0.6,0.4,1,1,1.4,1.7s0.5,1.5,0.5,2.4v16.2
			c0,1.8-0.6,3.2-1.8,4.1c-0.6,0.4-1.2,0.8-1.8,1c-0.6,0.2-1.2,0.4-1.8,0.4h-7.4c-0.6,0-1.2-0.1-1.8-0.4c-0.6-0.2-1.2-0.6-1.8-1
			c-0.6-0.5-1-1-1.4-1.7s-0.5-1.5-0.5-2.4v-16.2c0-0.9,0.2-1.7,0.5-2.4s0.8-1.2,1.4-1.7h0c0.6-0.4,1.2-0.7,1.8-1
			c0.6-0.2,1.2-0.4,1.8-0.4H38z M37.2,610.9c0.8,0,1.4-0.2,1.8-0.7c0.3-0.5,0.5-1,0.5-1.6v-15.6c0-0.6-0.2-1.1-0.5-1.6
			c-0.3-0.5-0.9-0.7-1.8-0.7h-5.7c-0.8,0-1.4,0.2-1.8,0.7c-0.3,0.5-0.5,1-0.5,1.6v15.6c0,0.6,0.2,1.1,0.5,1.6s0.9,0.7,1.8,0.7H37.2z
			"/>
		<path class="st22" d="M61.5,587.3c0.6,0,1.2,0.1,1.8,0.4c0.6,0.2,1.2,0.6,1.8,1h0c0.6,0.4,1,1,1.4,1.7s0.5,1.5,0.5,2.4v16.2
			c0,1.8-0.6,3.2-1.8,4.1c-0.6,0.4-1.2,0.8-1.8,1c-0.6,0.2-1.2,0.4-1.8,0.4h-7.4c-0.6,0-1.2-0.1-1.8-0.4s-1.2-0.6-1.8-1
			c-0.6-0.5-1-1-1.4-1.7s-0.5-1.5-0.5-2.4v-16.2c0-0.9,0.2-1.7,0.5-2.4s0.8-1.2,1.4-1.7h0c0.6-0.4,1.2-0.7,1.8-1
			c0.6-0.2,1.2-0.4,1.8-0.4H61.5z M60.7,610.9c0.8,0,1.4-0.2,1.8-0.7c0.3-0.5,0.5-1,0.5-1.6v-15.6c0-0.6-0.2-1.1-0.5-1.6
			c-0.3-0.5-0.9-0.7-1.8-0.7h-5.7c-0.8,0-1.4,0.2-1.8,0.7c-0.3,0.5-0.5,1-0.5,1.6v15.6c0,0.6,0.2,1.1,0.5,1.6s0.9,0.7,1.8,0.7H60.7z
			"/>
		<path class="st22" d="M86.5,587.8c0.3-0.4,0.7-0.6,1.2-0.6c0.5,0,1,0.2,1.5,0.7c0.2,0.2,0.5,0.5,0.6,0.8s0.2,0.5,0.2,0.8
			c0,0.4-0.2,0.8-0.4,1l-4.6,5.3l-8.9,10.4v6.8c0,1.1-0.7,1.6-2,1.6c-1.3,0-2-0.5-2-1.6v-24.1c0-1.1,0.7-1.6,2-1.6
			c1.4,0,2,0.5,2,1.6v11.1L86.5,587.8z M81.7,603.9c-0.2-0.3-0.3-0.7-0.3-1.2c0-0.7,0.3-1.2,0.8-1.6h0c0.4-0.3,0.9-0.5,1.4-0.5
			c0.4,0,0.8,0.2,1.1,0.8l6.6,9.6l0,0c0.2,0.3,0.3,0.7,0.3,1c0,0.6-0.3,1.1-0.9,1.6h0c-0.2,0.2-0.5,0.3-0.7,0.4
			c-0.2,0.1-0.4,0.1-0.6,0.1s-0.4-0.1-0.6-0.2c-0.2-0.1-0.4-0.3-0.6-0.5L81.7,603.9z"/>
		<path class="st22" d="M93.8,602.6c-1,0-1.6-0.6-1.6-1.7c0-0.6,0.2-1,0.4-1.3c0.3-0.3,0.7-0.4,1.1-0.4h6.9c1,0,1.5,0.6,1.5,1.7
			c0.1,1.1-0.5,1.7-1.5,1.7H93.8z"/>
		<path class="st22" d="M109.8,589.5c0,0.7-0.2,1.3-0.8,1.8s-1.1,0.8-1.8,0.8c-0.7,0-1.3-0.2-1.8-0.8s-0.8-1.1-0.8-1.8
			c0-0.8,0.2-1.4,0.8-1.9c0.5-0.5,1.1-0.8,1.8-0.8c0.7,0,1.3,0.2,1.8,0.8S109.8,588.7,109.8,589.5z M109.1,612.9
			c0,1.1-0.6,1.6-1.9,1.6c-1.3,0-1.9-0.5-1.9-1.6v-17.5c0-1.1,0.6-1.6,1.9-1.6c1.2,0,1.9,0.5,1.9,1.6V612.9z"/>
		<path class="st22" d="M117.6,612.9c0,1.1-0.6,1.6-1.9,1.6s-1.9-0.5-1.9-1.6v-13.7c0-0.9,0.2-1.7,0.4-2.4s0.8-1.2,1.4-1.7
			c1.2-0.9,2.4-1.3,3.6-1.3h5.5c1.2,0,2.4,0.4,3.6,1.3c1.2,0.9,1.8,2.2,1.8,4.1v13.7c0,1.1-0.6,1.6-1.9,1.6s-1.9-0.5-1.9-1.6v-13.4
			c0-0.6-0.2-1.2-0.5-1.7l0,0c-0.3-0.5-0.9-0.8-1.8-0.8h-4.2c-0.9,0-1.5,0.3-1.8,0.8c-0.3,0.5-0.5,1-0.5,1.7L117.6,612.9
			L117.6,612.9z"/>
		<path class="st22" d="M140.1,612c-0.6,0-1.2-0.1-1.8-0.3c-0.6-0.2-1.2-0.5-1.8-0.9c-1.2-0.8-1.8-2.1-1.8-4v-7.7
			c0-1,0.2-1.8,0.5-2.5s0.8-1.2,1.3-1.6c0.6-0.4,1.2-0.7,1.8-0.8c0.6-0.2,1.2-0.3,1.8-0.3h5.7c0.6,0,1.2,0.1,1.8,0.4s1.2,0.6,1.7,1
			c0.5,0.4,0.9,1,1.3,1.7c0.3,0.7,0.5,1.5,0.5,2.4v14.4c0,1-0.1,1.8-0.5,2.4c-0.3,0.7-0.7,1.2-1.3,1.7c-0.5,0.4-1.1,0.8-1.7,1
			c-0.6,0.2-1.2,0.4-1.8,0.4H140c-1.2,0-2.4-0.3-3.6-1c-0.6-0.4-1.1-0.8-1.4-1.4c-0.3-0.6-0.4-1.2-0.4-2v-0.4c0-0.5,0.1-0.8,0.4-1.1
			c0.3-0.3,0.8-0.4,1.4-0.4c1.3,0.1,1.9,0.6,1.9,1.5v0.4c0,0.2,0.2,0.5,0.5,0.8c0.4,0.3,0.9,0.4,1.8,0.4h4.2c0.8,0,1.4-0.2,1.8-0.7
			c0.4-0.5,0.5-1,0.5-1.6v-14.3c0-0.6-0.2-1.1-0.5-1.5c-0.4-0.5-0.9-0.7-1.8-0.7h-4.2c-0.8,0-1.4,0.2-1.8,0.7
			c-0.4,0.5-0.5,1-0.5,1.5v7.2c0,0.6,0.2,1.1,0.5,1.6s0.9,0.7,1.8,0.7h3.5c0.8,0,1.2,0.5,1.2,1.6c0,0.5-0.1,0.9-0.3,1.2
			c-0.2,0.3-0.5,0.4-0.9,0.4L140.1,612L140.1,612z"/>
	</g>
	<g>
		<path class="st23" d="M-108.9,519.2H3.7c0,0,18.7,19.5,0,44.6h-112.7"/>
		<path class="st23" d="M-108.9,565.2H3.7c0,0,18.7,22.5,0,51.5h-112.7"/>
	</g>
</g>
<g>
	<g>
		<path class="st24" d="M338.2,587.3c0.6,0,1.2,0.1,1.8,0.4c0.6,0.2,1.2,0.6,1.8,1h0c0.6,0.4,1,1,1.4,1.7c0.3,0.7,0.5,1.5,0.5,2.4
			v16.2c0,1.8-0.6,3.2-1.8,4.1c-0.6,0.4-1.2,0.8-1.8,1c-0.6,0.2-1.2,0.4-1.8,0.4h-7.4c-0.6,0-1.2-0.1-1.8-0.4s-1.2-0.6-1.8-1
			c-0.6-0.5-1-1-1.4-1.7c-0.3-0.7-0.5-1.5-0.5-2.4v-16.2c0-0.9,0.2-1.7,0.5-2.4s0.8-1.2,1.4-1.7h0c0.6-0.4,1.2-0.7,1.8-1
			c0.6-0.2,1.2-0.4,1.8-0.4H338.2z M337.3,610.9c0.8,0,1.4-0.2,1.8-0.7c0.3-0.5,0.5-1,0.5-1.6v-15.6c0-0.6-0.2-1.1-0.5-1.6
			c-0.3-0.5-0.9-0.7-1.8-0.7h-5.7c-0.8,0-1.4,0.2-1.8,0.7c-0.3,0.5-0.5,1-0.5,1.6v15.6c0,0.6,0.2,1.1,0.5,1.6s0.9,0.7,1.8,0.7H337.3
			z"/>
		<path class="st24" d="M361.6,587.3c0.6,0,1.2,0.1,1.8,0.4c0.6,0.2,1.2,0.6,1.8,1h0c0.6,0.4,1,1,1.4,1.7c0.3,0.7,0.5,1.5,0.5,2.4
			v16.2c0,1.8-0.6,3.2-1.8,4.1c-0.6,0.4-1.2,0.8-1.8,1c-0.6,0.2-1.2,0.4-1.8,0.4h-7.4c-0.6,0-1.2-0.1-1.8-0.4s-1.2-0.6-1.8-1
			c-0.6-0.5-1-1-1.4-1.7c-0.3-0.7-0.5-1.5-0.5-2.4v-16.2c0-0.9,0.2-1.7,0.5-2.4s0.8-1.2,1.4-1.7h0c0.6-0.4,1.2-0.7,1.8-1
			c0.6-0.2,1.2-0.4,1.8-0.4H361.6z M360.8,610.9c0.8,0,1.4-0.2,1.8-0.7c0.3-0.5,0.5-1,0.5-1.6v-15.6c0-0.6-0.2-1.1-0.5-1.6
			c-0.3-0.5-0.9-0.7-1.8-0.7h-5.7c-0.8,0-1.4,0.2-1.8,0.7c-0.3,0.5-0.5,1-0.5,1.6v15.6c0,0.6,0.2,1.1,0.5,1.6s0.9,0.7,1.8,0.7H360.8
			z"/>
		<path class="st24" d="M386.6,587.8c0.3-0.4,0.7-0.6,1.2-0.6c0.5,0,1,0.2,1.5,0.7c0.2,0.2,0.5,0.5,0.6,0.8s0.2,0.5,0.2,0.8
			c0,0.4-0.1,0.8-0.4,1l-4.6,5.3l-8.9,10.4v6.8c0,1.1-0.7,1.6-2,1.6c-1.3,0-2-0.5-2-1.6v-24.1c0-1.1,0.7-1.6,2-1.6
			c1.4,0,2,0.5,2,1.6v11.1L386.6,587.8z M381.8,603.9c-0.2-0.3-0.3-0.7-0.3-1.2c0-0.7,0.3-1.2,0.9-1.6h0c0.5-0.3,0.9-0.5,1.4-0.5
			c0.4,0,0.8,0.2,1.1,0.8l6.6,9.6l0,0c0.2,0.3,0.3,0.7,0.3,1c0,0.6-0.3,1.1-0.9,1.6h0c-0.2,0.2-0.5,0.3-0.7,0.4
			c-0.2,0.1-0.4,0.1-0.6,0.1s-0.4-0.1-0.6-0.2c-0.2-0.1-0.4-0.3-0.6-0.5L381.8,603.9z"/>
		<path class="st24" d="M394,602.6c-1,0-1.6-0.6-1.6-1.7c0-0.6,0.2-1,0.4-1.3c0.3-0.3,0.6-0.4,1.1-0.4h6.9c1,0,1.5,0.6,1.5,1.7
			c0,1.1-0.5,1.7-1.5,1.7H394z"/>
		<path class="st24" d="M410,589.5c0,0.7-0.2,1.3-0.8,1.8s-1.1,0.8-1.8,0.8s-1.3-0.2-1.9-0.8s-0.8-1.1-0.8-1.8
			c0-0.8,0.2-1.4,0.8-1.9c0.5-0.5,1.1-0.8,1.9-0.8c0.7,0,1.3,0.2,1.8,0.8S410,588.7,410,589.5z M409.3,612.9c0,1.1-0.6,1.6-1.9,1.6
			c-1.3,0-1.9-0.5-1.9-1.6v-17.5c0-1.1,0.6-1.6,1.9-1.6c1.2,0,1.9,0.5,1.9,1.6V612.9z"/>
		<path class="st24" d="M417.8,612.9c0,1.1-0.6,1.6-1.9,1.6s-1.9-0.5-1.9-1.6v-13.7c0-0.9,0.1-1.7,0.4-2.4s0.8-1.2,1.4-1.7
			c1.2-0.9,2.4-1.3,3.6-1.3h5.5c1.2,0,2.4,0.4,3.6,1.3c1.2,0.9,1.8,2.2,1.8,4.1v13.7c0,1.1-0.6,1.6-1.9,1.6s-1.9-0.5-1.9-1.6v-13.4
			c0-0.6-0.2-1.2-0.5-1.7l0,0c-0.3-0.5-0.9-0.8-1.8-0.8h-4.2c-0.9,0-1.5,0.3-1.8,0.8c-0.3,0.5-0.5,1-0.5,1.7L417.8,612.9
			L417.8,612.9z"/>
		<path class="st24" d="M440.2,612c-0.6,0-1.2-0.1-1.8-0.3c-0.6-0.2-1.2-0.5-1.8-0.9c-1.2-0.8-1.8-2.1-1.8-4v-7.7
			c0-1,0.2-1.8,0.5-2.5s0.8-1.2,1.3-1.6c0.6-0.4,1.2-0.7,1.8-0.8c0.6-0.2,1.2-0.3,1.8-0.3h5.7c0.6,0,1.2,0.1,1.8,0.4s1.2,0.6,1.7,1
			c0.5,0.4,0.9,1,1.3,1.7s0.5,1.5,0.5,2.4v14.4c0,1-0.1,1.8-0.5,2.4s-0.7,1.2-1.3,1.7c-0.5,0.4-1.1,0.8-1.7,1
			c-0.6,0.2-1.2,0.4-1.8,0.4h-5.7c-1.2,0-2.4-0.3-3.6-1c-0.6-0.4-1.1-0.8-1.4-1.4c-0.3-0.6-0.4-1.2-0.4-2v-0.4
			c0-0.5,0.1-0.8,0.4-1.1s0.8-0.4,1.4-0.4c1.3,0.1,1.9,0.6,1.9,1.5v0.4c0,0.2,0.2,0.5,0.5,0.8c0.4,0.3,1,0.4,1.8,0.4h4.2
			c0.8,0,1.4-0.2,1.8-0.7c0.4-0.5,0.5-1,0.5-1.6v-14.3c0-0.6-0.2-1.1-0.5-1.5c-0.4-0.5-1-0.7-1.8-0.7h-4.2c-0.8,0-1.4,0.2-1.8,0.7
			c-0.4,0.5-0.5,1-0.5,1.5v7.2c0,0.6,0.2,1.1,0.5,1.6s1,0.7,1.8,0.7h3.5c0.8,0,1.2,0.5,1.2,1.6c0,0.5-0.1,0.9-0.3,1.2
			c-0.2,0.3-0.5,0.4-0.9,0.4L440.2,612L440.2,612z"/>
	</g>
	<g>
		<path class="st25" d="M191.2,519.2h112.7c0,0,18.7,19.5,0,44.6H191.2"/>
		<path class="st25" d="M191.2,565.2h112.7c0,0,18.7,22.5,0,51.5H191.2"/>
	</g>
</g>
<image style="overflow:visible;enable-background:new    ;" width="189" height="102" xlink:href="CAAF94E7.jpeg"  transform="matrix(0.9902 0 0 0.9902 -390.3199 902.6141)">
</image>
</svg>
